# xmcd
#
# Track frame offsets: 
#        182
#        14437
#        27765
#        40447
#        56135
#        73270
#        84017
#        98657
#        112877
#        131850
#        151020
#        192482
#        216387
#        230222
#
# Disc length: 3247 seconds
#
# Revision: 4
# Processed by: cddbd v1.5.1PL2 Copyright (c) Steve Scherf et al.
# Submitted via: ExactAudioCopy v0.95b3
#
DISCID=c20cad0e
DTITLE=Various Artist - Dorival Caymmi-Minha Historia
DYEAR=1997
DGENRE=MPB
TTITLE0=Tom e Dorival - Saudade da Bahia
TTITLE1=Gal Costa - Modinha para Gabriela
TTITLE2=MPB 4 - Coqueiro de Itapuan
TTITLE3=Nana Caymmi - Nesta rua tao deserta
TTITLE4=Sylvia Teles - Sabado em Copacabana
TTITLE5=Os Cariocas - O samba da minha terra
TTITLE6=Gal Costa - So louco
TTITLE7=Elis Regina - Joao Valentao
TTITLE8=MPB 4 - Nunca mais_Dora_Eu nao tenho onde morar
TTITLE9=Gal Costa - Dois de fevereiro
TTITLE10=Dorival e Quart Cy - Historia dos pescadores
TTITLE11=Gal e Bethania - Oracao de mae Menininha
TTITLE12=Danilo Caymmi - Voce ja foi a Bahia
TTITLE13=Dorival Nana e Danilo - Maracangalha
EXTD=YEAR: 1997
EXTT0=
EXTT1=
EXTT2=
EXTT3=
EXTT4=
EXTT5=
EXTT6=
EXTT7=
EXTT8=
EXTT9=
EXTT10=
EXTT11=
EXTT12=
EXTT13=
PLAYORDER=
